<svg xmlns="http://www.w3.org/2000/svg" viewBox="0 0 250 250" role="img" aria-label="MikArt">
  <defs>
    <linearGradient id="bg" x1="0" x2="1" y1="0" y2="1">
      <stop offset="0" stop-color="#22b7c4"/>
      <stop offset="1" stop-color="#0d7280"/>
    </linearGradient>
  </defs>
  <rect width="250" height="250" fill="url(#bg)"/>
  <path d="M0 180 170 0h80L70 250H0z" fill="#d8f2f4" opacity=".84"/>
  <path d="M13 207c11-26 20-19 29-6 5 7 10 4 12-5l5-25c3-14 13-13 18 0l9 24c3 8 11 8 14 0l11-29c4-11 12-11 17 0l15 31c5 9 13 6 15-4l9-38c3-13 14-14 20-2l24 49" fill="none" stroke="#bfe5e8" stroke-width="18" stroke-linecap="round" stroke-linejoin="round"/>
  <text x="18" y="147" fill="#092c35" font-family="Arial Rounded MT Bold, Arial, sans-serif" font-size="58" font-weight="900">MikArt</text>
</svg>
